<svg id="Layer_1" xmlns="http://www.w3.org/2000/svg" viewBox="0 0 20 20"><style>.st0{display:none}.st1,.st2,.st3{display:inline;fill:#3b5998}.st2,.st3{fill:#fff}.st3{fill:#26a6d1}.st4{fill:#cb2027}.st4,.st5{display:inline}.st6{fill:#f1f2f2}.st7{fill:#ef72ad}.st8{fill:#ee539e}.st9{fill:#fff}</style><g class="st0"><circle class="st1" cx="58" cy="-61.3" r="8.8"/><path class="st2" d="M60.2-61h-1.6v5.7h-2.4V-61h-1.1v-2h1.1v-1.3c0-.9.4-2.4 2.4-2.4h1.8v2h-1.3c-.2 0-.5.1-.5.5v1.2h1.8l-.2 2z"/></g><g class="st0"><path class="st3" d="M10 1.4c4.8 0 8.6 3.9 8.6 8.6 0 4.8-3.9 8.6-8.6 8.6S1.4 14.8 1.4 10 5.2 1.4 10 1.4z"/><path class="st2" d="M15.4 7.2c-.4.2-.8.3-1.2.3.4-.3.8-.7.9-1.1-.4.2-.9.4-1.3.5-.4-.4-.9-.6-1.5-.6-1.2 0-2.1.9-2.1 2 0 .2 0 .3.1.5-1.9-.2-3.4-1-4.4-2.2-.2.3-.3.7-.3 1 0 .7.4 1.3.9 1.7-.3 0-.7-.1-1-.3 0 1 .7 1.8 1.7 2-.2 0-.4.1-.6.1h-.4c.3.8 1 1.4 2 1.4-.7.5-1.6.9-2.6.9h-.5c.9.6 2 .9 3.2.9 3.9 0 6-3.1 6-5.8v-.3c.5-.2.8-.6 1.1-1z"/></g><g class="st0"><circle class="st4" cx="10" cy="10" r="8.6"/><g class="st5"><path class="st6" d="M10.7 12.9c-.7-.1-.9-.4-1.4-.7-.3 1.5-.6 2.9-1.6 3.6-.3-2.2.5-3.9.8-5.7-.6-1 .1-3.1 1.4-2.6 1.6.6-1.4 3.8.6 4.2 2.1.4 2.9-3.6 1.6-4.9-1.9-1.9-5.4 0-5 2.7.1.7.8.9.3 1.8-1.2-.3-1.6-1.2-1.5-2.5.1-2.1 1.8-3.5 3.6-3.7 2.2-.3 4.4.8 4.7 2.9.2 2.5-1.1 5.1-3.5 4.9z"/></g></g><circle class="st7" cx="10" cy="10" r="7.8"/><path class="st8" d="M10 2.2c-.3 0-.7 0-1 .1 3.8.5 6.8 3.8 6.8 7.8s-3 7.3-6.8 7.8c.3 0 .7.1 1 .1 4.3 0 7.8-3.5 7.8-7.8s-3.5-8-7.8-8z"/><path class="st9" d="M12.9 5H7.1C5.9 5 5 5.9 5 7.1v5.8C5 14.1 6 15 7.1 15h5.8c1.2 0 2.1-1 2.1-2.1V7.1c0-1.2-.9-2.1-2.1-2.1zm1.6 7.9c0 .9-.7 1.6-1.6 1.6H7.1c-.9 0-1.6-.7-1.6-1.6V7.1c0-.9.7-1.6 1.6-1.6h5.8c.9 0 1.6.7 1.6 1.6v5.8z"/><path class="st9" d="M10 7.4c-1.5 0-2.6 1.2-2.6 2.6s1.2 2.6 2.6 2.6 2.6-1.2 2.6-2.6-1.1-2.6-2.6-2.6zm0 4.7c-1.2 0-2.1-1-2.1-2.1s1-2.1 2.1-2.1 2.1 1 2.1 2.1-.9 2.1-2.1 2.1z"/><circle class="st9" cx="12.7" cy="6.9" r=".7"/></svg>