<svg enable-background="new 0 0 20 20" viewBox="0 0 20 20" xmlns="http://www.w3.org/2000/svg"><path d="m10 1.4c4.8 0 8.6 3.9 8.6 8.6 0 4.8-3.9 8.6-8.6 8.6s-8.6-3.8-8.6-8.6 3.8-8.6 8.6-8.6z" fill="#26a6d1"/><path d="m15.4 7.2c-.4.2-.8.3-1.2.3.4-.3.8-.7.9-1.1-.4.2-.9.4-1.3.5-.4-.4-.9-.6-1.5-.6-1.2 0-2.1.9-2.1 2 0 .2 0 .3.1.5-1.9-.2-3.4-1-4.4-2.2-.2.3-.3.7-.3 1 0 .7.4 1.3.9 1.7-.3 0-.7-.1-1-.3 0 1 .7 1.8 1.7 2-.2 0-.4.1-.6.1-.1 0-.3 0-.4 0 .3.8 1 1.4 2 1.4-.7.5-1.6.9-2.6.9-.2 0-.3 0-.5 0 .9.6 2 .9 3.2.9 3.9 0 6-3.1 6-5.8v-.3c.5-.2.8-.6 1.1-1z" fill="#fff"/></svg>